<svg width="181" height="57" viewBox="0 0 181 57" fill="none" xmlns="http://www.w3.org/2000/svg">
<path d="M27.7756 2H156.526C167.318 2 175.015 12.465 171.799 22.7668L165.245 43.7668C163.16 50.4492 156.972 55 149.972 55H22.7821C12.4489 55 4.82563 45.3514 7.21606 35.2986L12.2096 14.2986C13.9239 7.08892 20.3648 2 27.7756 2Z" stroke="black" stroke-width="4" stroke-linejoin="round"/>
<path d="M25.3008 35.0605C25.3008 33.6543 26.3203 32.6699 27.5684 32.6699C28.4121 32.6699 29.1328 32.9863 30.0996 33.8477C31.541 35.2012 33.2812 35.9395 35.0566 35.9395C37.5703 35.9395 38.9238 35.0254 38.9238 33.373C38.9238 32.0371 37.8691 31.2109 35.3379 30.666L32.0332 29.9102C27.709 28.9961 25.582 26.7637 25.582 23.0898C25.582 18.4844 29.168 15.5664 34.793 15.5664C37.8691 15.5664 40.6465 16.4629 42.2637 17.9922C43.3008 18.9414 43.8457 19.9961 43.8457 21.0684C43.8457 22.3516 42.9316 23.2305 41.5781 23.2305C40.8223 23.2305 40.0664 22.8965 39.3281 22.1934C38.0977 20.8398 36.6738 20.1367 34.8633 20.1367C32.7363 20.1367 31.4004 21.1035 31.4004 22.6152C31.4004 23.9336 32.4199 24.8652 34.6523 25.3047L37.9922 26.0254C42.457 26.9219 44.6191 29.1191 44.6191 32.7578C44.6191 37.4863 40.7695 40.5273 34.7578 40.5273C31.4531 40.5273 28.5176 39.5781 26.8828 38.0312C25.8633 37.0645 25.3008 36.0449 25.3008 35.0605ZM59.3848 36.8535C58.7695 38.6992 56.7832 40.2109 53.8301 40.2109C50.0859 40.2109 47.6953 38.1016 47.6953 33.7246V24.1445C47.6953 22.1055 48.75 21.0684 50.543 21.0684C52.3184 21.0684 53.3555 22.1055 53.3555 24.1445V32.3008C53.3555 34.6211 54.5684 35.623 56.2559 35.623C58.2773 35.623 59.5078 34.252 59.5078 32.1777V24.1445C59.5078 22.1055 60.5449 21.0684 62.3203 21.0684C64.1133 21.0684 65.1504 22.1055 65.1504 24.1445V37.1875C65.1504 39.0859 64.0605 40.1758 62.3906 40.1758C60.7559 40.1758 59.7539 39.2441 59.666 37.4688V36.8535H59.3848ZM76.4355 37.082C76.4355 39.0684 75.4336 40.1758 73.623 40.1758C71.8125 40.1758 70.793 39.0684 70.793 37.082V25.5684H70.0547C68.5605 25.5684 67.7168 24.7949 67.7168 23.4414C67.7168 22.0879 68.5605 21.2793 70.0547 21.2793H70.793V19.9961C70.793 15.7773 72.8848 14.0547 76.998 14.0547C78.2461 14.0547 79.2305 14.2832 79.8984 14.6875C80.584 15.0918 80.9531 15.6895 80.9531 16.3926C80.9531 17.3945 80.3027 18.0273 79.4062 18.0273C78.8613 18.0273 78.5449 17.957 77.9824 17.957C76.8926 17.957 76.2949 18.4668 76.2949 19.8203V21.2793H78C79.4941 21.2793 80.3379 22.0703 80.3379 23.4238C80.3379 24.7773 79.4941 25.5684 78 25.5684H76.4355V37.082ZM86.1738 40.1758C84.3809 40.1758 83.3613 39.1035 83.3613 37.082V17.6934C83.3613 15.6543 84.3809 14.582 86.1738 14.582C87.9668 14.582 89.0039 15.6543 89.0039 17.6934V37.082C89.0039 39.1035 87.9668 40.1758 86.1738 40.1758ZM92.502 31.668V29.5938C92.502 24.2852 96.0176 20.7695 101.309 20.7695C106.283 20.7695 109.799 24.25 109.799 28.9082C109.799 31.0527 109.043 31.8262 107.021 31.8262H98.25V32.5117C98.2852 34.7266 99.7617 36.2207 102.275 36.2207C103.629 36.2207 104.543 35.9219 105.264 35.3945C106.125 34.8496 106.494 34.5156 107.373 34.5156C108.516 34.5156 109.271 35.2539 109.271 36.4492C109.271 37.4512 108.656 38.3301 107.584 38.998C106.301 39.9121 104.244 40.457 101.871 40.457C96.0703 40.457 92.502 37.1523 92.502 31.668ZM98.25 28.5918H104.473V28.5391C104.473 26.3945 103.277 24.9883 101.432 24.9883C99.4453 24.9883 98.25 26.4297 98.25 28.5391V28.5918ZM118.746 37.082C118.746 39.0508 117.691 40.1758 115.863 40.1758C114.018 40.1758 113.104 39.0508 113.104 37.082V24.1621C113.104 22.1758 114.07 21.0684 115.881 21.0684C117.516 21.0684 118.447 21.9824 118.57 23.6875V23.9512H118.834C119.467 22.0176 120.803 20.9453 122.613 20.9453C123.387 20.9453 124.002 21.1562 124.441 21.5781C124.898 22 125.145 22.6152 125.145 23.4062C125.145 24.1797 124.916 24.7422 124.459 25.1289C124.037 25.4805 123.387 25.6738 122.543 25.709C119.994 25.7969 118.746 27.1855 118.746 29.875V37.082ZM145.711 37.5391C145.711 39.1387 144.744 40.123 143.25 40.123C141.756 40.123 140.789 39.1387 140.789 37.5391V32.4941H136.113C134.496 32.4941 133.512 31.5801 133.512 30.1211C133.512 28.6445 134.496 27.7129 136.113 27.7129H140.789V22.8438C140.789 21.2266 141.738 20.2422 143.232 20.2422C144.744 20.2422 145.711 21.2266 145.711 22.8438V27.7129H150.475C152.092 27.7129 153.076 28.6445 153.076 30.1035C153.076 31.5801 152.092 32.4941 150.475 32.4941H145.711V37.5391Z" fill="black"/>
</svg>
